<?xml version="1.0" encoding="UTF-8" standalone="no"?>
<svg width="100px" height="100px" viewBox="0 0 100 100" version="1.1" xmlns="http://www.w3.org/2000/svg" xmlns:xlink="http://www.w3.org/1999/xlink">
    <!-- Generator: Sketch 41.2 (35397) - http://www.bohemiancoding.com/sketch -->
    <title>celebrate</title>
    <desc>Created with Sketch.</desc>
    <defs>
        <polygon id="path-1" points="36.9444444 14.2558194 36.9444444 0.634828631 -0.000395570655 0.634828631 -0.000395570655 14.2558194 36.9444444 14.2558194"></polygon>
    </defs>
    <g id="Page-1" stroke="none" stroke-width="1" fill="none" fill-rule="evenodd">
        <g id="celebrate">
            <g id="Page-1" transform="translate(4.000000, 3.000000)">
                <path d="M30.6797222,18.2239028 C30.3841667,18.5194583 30.1598611,18.8757083 29.9725,19.2662639 L29.9513889,19.2451528 L0.353611111,85.9166806 L0.382638889,85.9457083 C-0.16625,87.0091806 0.752083333,89.1730694 2.63361111,91.0572361 C4.5125,92.936125 6.67638889,93.8544583 7.73986111,93.3055694 L7.76625,93.3319583 L74.4430556,63.7368194 L74.4219444,63.7130694 C74.8125,63.5283472 75.1661111,63.3040417 75.4643056,63.0058472 C79.58625,58.8839028 72.9019444,45.5179306 60.5361111,33.1520972 C48.1702778,20.783625 34.8016667,14.1019583 30.6797222,18.2239028" id="Fill-1" fill="#DD2E44"></path>
                <path d="M34.3055556,30.1297778 L1.09777778,84.2428333 L0.353611111,85.9185278 L0.382638889,85.9449167 C-0.16625,87.0110278 0.752083333,89.1722778 2.63361111,91.0564444 C3.24583333,91.6686667 3.87916667,92.1331111 4.50458333,92.5263056 L44.8611111,43.3242222 L34.3055556,30.1297778 Z" id="Fill-3" fill="#EB596E"></path>
                <path d="M60.7253194,32.9425694 C73.0489306,45.2714583 79.8915694,58.413125 76.0018472,62.3002083 C72.1147639,66.1872917 58.9730972,59.3472917 46.6415694,47.0236806 C34.3153194,34.6947917 27.4753194,21.5504861 31.3624028,17.6634028 C35.252125,13.7736806 48.3937917,20.6163194 60.7253194,32.9425694" id="Fill-5" fill="#A0041E"></path>
                <path d="M49.0564167,34.3768056 C48.5312778,34.8016667 47.8451667,35.0233333 47.1194722,34.9441667 C44.8289167,34.6961111 42.9051667,33.8991667 41.5540556,32.6404167 C40.1264167,31.3077778 39.4218333,29.52125 39.6144722,27.7268056 C39.95225,24.58125 43.1083611,21.6943056 48.4890556,22.2775 C50.5816944,22.5018056 51.5158611,21.8288889 51.5448889,21.5069444 C51.5818333,21.1876389 50.8139167,20.33 48.7239167,20.1030556 C46.4307222,19.855 44.5069722,19.0580556 43.1558611,17.7993056 C41.7282222,16.4666667 41.021,14.6775 41.2162778,12.8856944 C41.5593333,9.7375 44.7128056,6.85319444 50.0882222,7.43375 C51.6135,7.6 52.4157222,7.28333333 52.7561389,7.08013889 C53.0305833,6.91388889 53.1387778,6.75555556 53.1493333,6.66583333 C53.1783611,6.34652778 52.421,5.48888889 50.3230833,5.26194444 C48.8769722,5.10361111 47.8266944,3.80527778 47.9850278,2.35388889 C48.1407222,0.905138889 49.4390556,-0.1425 50.8904444,0.0158333333 C56.2658611,0.59375 58.7358611,4.085 58.3954444,7.23319444 C58.0550278,10.37875 54.9015556,13.2630556 49.5208611,12.6825 C47.9955833,12.51625 47.1986389,12.8329167 46.8555833,13.0361111 C46.5837778,13.2023611 46.4729444,13.3633333 46.4623889,13.4504167 C46.4280833,13.7723611 47.1933611,14.63 49.2886389,14.8569444 C54.6640556,15.4348611 57.1340556,18.9261111 56.7936389,22.0743056 C56.4532222,25.2198611 53.2971111,28.1068056 47.9216944,27.5236111 C46.3964167,27.36 45.5941944,27.6740278 45.2511389,27.8772222 C44.9793333,28.0434722 44.8737778,28.2044444 44.8632222,28.2941667 C44.8289167,28.6134722 45.5915556,29.4711111 47.6868333,29.6980556 C49.1329444,29.85375 50.1858611,31.1547222 50.0248889,32.6034722 C49.9483611,33.3291667 49.5815556,33.9519444 49.0564167,34.3768056" id="Fill-7" fill="#AA8DD8"></path>
                <path d="M80.9112361,58.78125 C86.1177639,57.3113889 89.7092917,59.6336111 90.5642917,62.6815278 C91.4192917,65.7268056 89.5667917,69.5822222 84.3655417,71.0441667 C82.3335972,71.6141667 81.7240139,72.5852778 81.8058194,72.8966667 C81.8955417,73.2080556 82.9273472,73.72 84.9540139,73.1447222 C90.1579028,71.6827778 93.7494306,74.005 94.6044306,77.0502778 C95.4673472,80.0981944 93.6095694,83.9483333 88.4030417,85.4155556 C86.3737361,85.9855556 85.7615139,86.9593056 85.8512361,87.2680556 C85.9383194,87.5768056 86.9674861,88.0861111 88.9967917,87.51875 C90.3980417,87.1229167 91.8573472,87.9409722 92.2531806,89.3422222 C92.6437361,90.7461111 91.8283194,92.2027778 90.4217917,92.5986111 C85.2231806,94.0631944 81.626375,91.74625 80.7660972,88.6956944 C79.9110972,85.6504167 81.7662361,81.8002778 86.9754028,80.3330556 C89.0047083,79.7604167 89.6169306,78.7919444 89.5272083,78.4805556 C89.440125,78.1718056 88.4135972,77.6572222 86.3842917,78.2272222 C81.1777639,79.6944444 77.5862361,77.3775 76.7285972,74.3269444 C75.8709583,71.2790278 77.7260972,67.4288889 82.9352639,65.9616667 C84.9592917,65.3943056 85.5715139,64.4179167 85.4844306,64.1118056 C85.3947083,63.7977778 84.3708194,63.2858333 82.338875,63.8584722 C80.9349861,64.2543056 79.4809583,63.43625 79.085125,62.0323611 C78.6892917,60.6311111 79.5073472,59.1744444 80.9112361,58.78125" id="Fill-9" fill="#77B255"></path>
                <g id="Group-13" transform="translate(58.055556, 37.407819)">
                    <mask id="mask-2" fill="white">
                        <use xlink:href="#path-1"></use>
                    </mask>
                    <g id="Clip-12"></g>
                    <path d="M2.64152778,14.2558194 C1.86569444,14.2558194 1.10041667,13.9154028 0.577916667,13.2662361 C-0.3325,12.1262361 -0.147777778,10.466375 0.989583333,9.55595833 C1.56486111,9.09415278 15.2870833,-1.68306944 34.6802778,1.09040278 C36.12375,1.29623611 37.1238889,2.63151389 36.9180556,4.07498611 C36.7122222,5.51581944 35.3875,6.52915278 33.9308333,6.31276389 C16.7965278,3.87970833 4.40958333,13.5802639 4.28819444,13.6779028 C3.8,14.0684583 3.21944444,14.2558194 2.64152778,14.2558194" id="Fill-11" fill="#AA8DD8" mask="url(#mask-2)"></path>
                </g>
                <path d="M15.1852222,40.6853333 C14.9345278,40.6853333 14.6785556,40.6483889 14.4252222,40.5718611 C13.02925,40.1549167 12.2375833,38.6824167 12.6571667,37.2864444 C15.6470278,27.3299167 18.3571667,11.4411667 15.0268889,7.30075 C14.6521667,6.83102778 14.0927222,6.36922222 12.8049444,6.46686111 C10.3270278,6.65422222 10.5645278,11.8792222 10.5671667,11.932 C10.678,13.3860278 9.5855,14.6526944 8.13411111,14.7608889 C6.65897222,14.8506111 5.41077778,13.7792222 5.30522222,12.3251944 C5.03077778,8.68616667 6.1655,1.67727778 12.4064722,1.20491667 C15.1931389,0.993805556 17.5074444,1.96227778 19.1435556,3.99422222 C25.4003611,11.7815833 19.0485556,34.3572778 17.7106389,38.8064444 C17.3675833,39.9490833 16.3199444,40.6853333 15.1852222,40.6853333" id="Fill-14" fill="#77B255"></path>
                <path d="M71.25,23.5325556 C71.25,25.7175556 69.4766667,27.4908889 67.2916667,27.4908889 C65.1066667,27.4908889 63.3333333,25.7175556 63.3333333,23.5325556 C63.3333333,21.3475556 65.1066667,19.5742222 67.2916667,19.5742222 C69.4766667,19.5742222 71.25,21.3475556 71.25,23.5325556" id="Fill-16" fill="#5C913B"></path>
                <path d="M10.5555556,45.9631111 C10.5555556,48.8764444 8.19111111,51.2408889 5.27777778,51.2408889 C2.36444444,51.2408889 0,48.8764444 0,45.9631111 C0,43.0471389 2.36444444,40.6853333 5.27777778,40.6853333 C8.19111111,40.6853333 10.5555556,43.0471389 10.5555556,45.9631111" id="Fill-18" fill="#9266CC"></path>
                <path d="M89.7222222,49.9214444 C89.7222222,52.1064444 87.9488889,53.8797778 85.7638889,53.8797778 C83.5788889,53.8797778 81.8055556,52.1064444 81.8055556,49.9214444 C81.8055556,47.7364444 83.5788889,45.9631111 85.7638889,45.9631111 C87.9488889,45.9631111 89.7222222,47.7364444 89.7222222,49.9214444" id="Fill-20" fill="#5C913B"></path>
                <path d="M65.9722222,81.5881111 C65.9722222,83.7731111 64.1988889,85.5464444 62.0138889,85.5464444 C59.8288889,85.5464444 58.0555556,83.7731111 58.0555556,81.5881111 C58.0555556,79.4031111 59.8288889,77.6297778 62.0138889,77.6297778 C64.1988889,77.6297778 65.9722222,79.4031111 65.9722222,81.5881111" id="Fill-22" fill="#5C913B"></path>
                <path d="M79.1666667,9.01866667 C79.1666667,11.932 76.8048611,14.2964444 73.8888889,14.2964444 C70.9755556,14.2964444 68.6111111,11.932 68.6111111,9.01866667 C68.6111111,6.10269444 70.9755556,3.74088889 73.8888889,3.74088889 C76.8048611,3.74088889 79.1666667,6.10269444 79.1666667,9.01866667" id="Fill-24" fill="#FFCC4D"></path>
                <path d="M89.7222222,20.8936667 C89.7222222,23.0786667 87.9488889,24.852 85.7638889,24.852 C83.5788889,24.852 81.8055556,23.0786667 81.8055556,20.8936667 C81.8055556,18.7086667 83.5788889,16.9353333 85.7638889,16.9353333 C87.9488889,16.9353333 89.7222222,18.7086667 89.7222222,20.8936667" id="Fill-26" fill="#FFCC4D"></path>
                <path d="M81.8055556,31.4492222 C81.8055556,33.6342222 80.0322222,35.4075556 77.8472222,35.4075556 C75.6622222,35.4075556 73.8888889,33.6342222 73.8888889,31.4492222 C73.8888889,29.2642222 75.6622222,27.4908889 77.8472222,27.4908889 C80.0322222,27.4908889 81.8055556,29.2642222 81.8055556,31.4492222" id="Fill-28" fill="#FFCC4D"></path>
                <path d="M23.75,60.477 C23.75,62.662 21.9766667,64.4353333 19.7916667,64.4353333 C17.6066667,64.4353333 15.8333333,62.662 15.8333333,60.477 C15.8333333,58.292 17.6066667,56.5186667 19.7916667,56.5186667 C21.9766667,56.5186667 23.75,58.292 23.75,60.477" id="Fill-30" fill="#FFCC4D"></path>
            </g>
        </g>
    </g>
</svg>