<?xml version="1.0" encoding="UTF-8" standalone="no"?>
<svg width="100px" height="100px" viewBox="0 0 100 100" version="1.1" xmlns="http://www.w3.org/2000/svg" xmlns:xlink="http://www.w3.org/1999/xlink">
    <!-- Generator: Sketch 41.2 (35397) - http://www.bohemiancoding.com/sketch -->
    <title>clapping-hands</title>
    <desc>Created with Sketch.</desc>
    <defs>
        <polygon id="path-1" points="3.70701478e-20 0.656719112 3.70701478e-20 83.3567159 84.6567362 83.3567159 84.6567362 0.656719112 0 0.656719112"></polygon>
    </defs>
    <g id="Page-1" stroke="none" stroke-width="1" fill="none" fill-rule="evenodd">
        <g id="clapping-hands">
            <g id="Page-1" transform="translate(4.000000, 1.000000)">
                <g id="Group-3" transform="translate(0.000000, 13.730473)">
                    <mask id="mask-2" fill="white">
                        <use xlink:href="#path-1"></use>
                    </mask>
                    <g id="Clip-2"></g>
                    <path d="M1.78067647,46.9718155 C1.78067647,46.9718155 -2.03232353,43.4574266 1.49894118,39.6599266 C5.03020588,35.8678711 8.84594118,39.3849822 8.84594118,39.3849822 L26.5460294,55.7019822 C26.2670294,55.4406488 27.7769118,53.3091488 27.5526176,53.1022599 L2.98420588,30.4560933 C2.98420588,30.4560933 -0.828794118,26.9417044 2.70247059,23.1496488 C6.23647059,19.3548711 10.0494706,22.8692599 10.0494706,22.8692599 L33.1572353,44.1706488 C33.1025294,44.1216488 34.8230294,42.1807044 34.7902059,42.1507599 L8.00073529,17.4547599 C8.00073529,17.4547599 4.18773529,13.9403711 7.719,10.1455933 C11.253,6.35353772 15.066,9.86792661 15.066,9.86792661 L41.8527353,34.5639266 C41.8855588,34.5911488 43.7209412,32.7563711 43.7756471,32.8080933 L18.7367647,9.72637105 C18.7367647,9.72637105 14.9237647,6.21198216 18.4550294,2.41720439 C21.9890294,-1.37485117 25.8020294,2.13953772 25.8020294,2.13953772 C25.8020294,2.13953772 44.4348529,19.3167599 52.2769412,26.5442599 C60.1162941,33.7717599 61.8832941,31.8743711 61.8832941,31.8743711 L54.8043529,25.3492044 L46.6285588,17.8168155 C46.6285588,17.8168155 42.8155588,14.3024266 46.3495588,10.5076488 C49.8835588,6.71014883 53.6938235,10.2245377 53.6938235,10.2245377 L74.6653235,29.5577599 C87.2969118,41.2034266 88.0545882,60.8388155 76.3502647,73.4127599 C64.6486765,85.9867044 44.9162647,86.7353155 32.2819412,75.0923711 C31.6145294,74.4771488 30.4164706,73.2875377 30.4684412,73.2303711 L30.3781765,73.3338155 L1.78067647,46.9718155 Z" id="Fill-1" fill="#EF9645" mask="url(#mask-2)"></path>
                </g>
                <path d="M9.71412353,55.3961333 C9.71412353,55.3961333 5.90112353,51.8817444 9.43238824,48.0869667 C12.9636529,44.2894667 16.7766529,47.8038556 16.7766529,47.8038556 L34.4794765,64.1263 C34.1977412,63.8649667 35.7103588,61.7334667 35.4860647,61.5265778 L10.9176529,38.8804111 C10.9176529,38.8804111 7.10465294,35.3660222 10.6359176,31.5712444 C14.1671824,27.7764667 17.9801824,31.2908556 17.9801824,31.2908556 L41.0879471,52.5949667 C41.0359765,52.5432444 42.7564765,50.6050222 42.7236529,50.5750778 L15.9341824,25.8763556 C15.9341824,25.8763556 12.1211824,22.3646889 15.6524471,18.5699111 C19.1837118,14.7751333 22.9967118,18.2895222 22.9967118,18.2895222 L49.7834471,42.9828 C49.8190059,43.0154667 51.6516529,41.1806889 51.7063588,41.2296889 L26.6702118,18.1479667 C26.6702118,18.1479667 22.8572118,14.6335778 26.3884765,10.8415222 C29.9197412,7.04674444 33.7327412,10.5611333 33.7327412,10.5611333 C33.7327412,10.5611333 52.3683,27.7410778 60.2103882,34.9685778 C68.0470059,42.1933556 69.8167412,40.2959667 69.8167412,40.2959667 L62.7350647,33.7708 L54.5620059,26.2384111 C54.5620059,26.2384111 50.7517412,22.7240222 54.2802706,18.9292444 C57.8142706,15.1344667 61.6272706,18.6488556 61.6272706,18.6488556 L82.5960353,37.9793556 C95.2303588,49.6250222 95.9853,69.2631333 84.2837118,81.8343556 C72.5793882,94.4083 52.8497118,95.1596333 40.2153882,83.5112444 C39.5452412,82.8987444 38.3499176,81.7091333 38.4018882,81.6546889 L38.3088882,81.7581333 L9.71412353,55.3961333 Z" id="Fill-4" fill="#FFDC5D"></path>
                <path d="M64.1850441,17.5814722 C63.6024265,17.5814722 63.0116029,17.3963611 62.5165147,17.01525 C61.3184559,16.0951389 61.0996324,14.3855833 62.0241618,13.1959722 L70.1726029,2.70180556 C71.0889265,1.51219444 72.8094265,1.28897222 74.0074853,2.21180556 C75.2028088,3.12919444 75.4216324,4.83875 74.4998382,6.02836111 L66.3513971,16.5225278 C65.8152794,17.2166944 65.0056324,17.5814722 64.1850441,17.5814722" id="Fill-6" fill="#FFAC33"></path>
                <path d="M49.0287794,19.0555556 C47.5188971,19.0555556 46.2934853,17.836 46.2934853,16.3333333 L46.2934853,2.72222222 C46.2934853,1.21955556 47.5188971,0 49.0287794,0 C50.5413971,0 51.7640735,1.21955556 51.7640735,2.72222222 L51.7640735,16.3333333 C51.7640735,17.836 50.5413971,19.0555556 49.0287794,19.0555556" id="Fill-8" fill="#FFAC33"></path>
                <path d="M74.7870441,26.3157222 C73.6710441,26.3157222 72.6206912,25.6297222 72.2186029,24.5217778 C71.6988971,23.1089444 72.4346912,21.5491111 73.8515735,21.0346111 L86.3874265,16.4966667 C87.8125147,15.9821667 89.3771029,16.7144444 89.8913382,18.1245556 C90.4110441,19.5373889 89.67525,21.0999444 88.2583676,21.6144444 L75.7225147,26.1496667 C75.4134265,26.2612778 75.0961324,26.3157222 74.7870441,26.3157222" id="Fill-10" fill="#FFAC33"></path>
            </g>
        </g>
    </g>
</svg>