<?xml version="1.0" encoding="UTF-8" standalone="no"?>
<svg width="100px" height="100px" viewBox="0 0 100 100" version="1.1" xmlns="http://www.w3.org/2000/svg" xmlns:xlink="http://www.w3.org/1999/xlink">
    <!-- Generator: Sketch 41.2 (35397) - http://www.bohemiancoding.com/sketch -->
    <title>heart-kiss-face</title>
    <desc>Created with Sketch.</desc>
    <defs></defs>
    <g id="Page-1" stroke="none" stroke-width="1" fill="none" fill-rule="evenodd">
        <g id="heart-kiss-face">
            <g id="Page-1" transform="translate(2.000000, 2.000000)">
                <path d="M97,48.5 C97,75.2854722 75.2854722,97 48.5,97 C21.7172222,97 0,75.2854722 0,48.5 C0,21.7172222 21.7172222,0 48.5,0 C75.2854722,0 97,21.7172222 97,48.5" id="Fill-1" fill="#FFCC4D"></path>
                <path d="M37.7222222,41.7638889 C37.7222222,46.9749444 34.7071389,51.1944444 30.9861111,51.1944444 C27.2650833,51.1944444 24.25,46.9749444 24.25,41.7638889 C24.25,36.5555278 27.2650833,32.3333333 30.9861111,32.3333333 C34.7071389,32.3333333 37.7222222,36.5555278 37.7222222,41.7638889" id="Fill-3" fill="#664500"></path>
                <path d="M76.6758056,47.9527583 C76.5168333,47.5890083 72.6368333,39.069175 64.6666667,39.069175 C56.6991944,39.069175 52.8191944,47.5890083 52.6575278,47.9527583 C52.4096389,48.5105083 52.5713056,49.1625639 53.0455278,49.545175 C53.5170556,49.9277861 54.1933611,49.9412583 54.6918333,49.5828972 C54.7241667,49.5586472 58.0922222,47.1525083 64.6666667,47.1525083 C71.2033889,47.1525083 74.5660556,49.5263139 74.6415,49.5802028 C74.8786111,49.7580361 75.1642222,49.8469528 75.4444444,49.8469528 C75.7408333,49.8469528 76.0399167,49.7472583 76.2851111,49.5532583 C76.7620278,49.1706472 76.9263889,48.5132028 76.6758056,47.9527583" id="Fill-5" fill="#664500"></path>
                <path d="M16.1639722,29.6388889 C15.6035278,29.6388889 15.035,29.46375 14.55,29.1 C13.3590556,28.2081389 13.11925,26.5187222 14.0111111,25.3277778 C22.8003889,13.6069444 34.532,13.4722222 35.0277778,13.4722222 C36.5151111,13.4722222 37.7222222,14.6793333 37.7222222,16.1666667 C37.7222222,17.6513056 36.5231944,18.8557222 35.0385556,18.8611111 C34.6209167,18.8665 25.4220833,19.0928333 18.3222222,28.5611111 C17.7914167,29.2670556 16.9830833,29.6388889 16.1639722,29.6388889" id="Fill-7" fill="#664500"></path>
                <path d="M78.1415833,37.7222222 C77.3197778,37.7222222 76.5114444,37.3503889 75.9833333,36.6444444 C68.9993333,27.3324444 57.2273056,29.5634444 57.1114444,29.585 C55.6375833,29.8840833 54.2337778,28.93025 53.9400833,27.4725556 C53.6490833,26.0148611 54.5975278,24.5948889 56.0552222,24.3038889 C56.6749444,24.1745556 71.2976944,21.4154444 80.2944444,33.4111111 C81.189,34.6020556 80.9465,36.2914722 79.7555556,37.1833333 C79.2705556,37.5470833 78.7047222,37.7222222 78.1415833,37.7222222" id="Fill-9" fill="#664500"></path>
                <path d="M56.2360194,75.4444444 C59.8331028,74.3343333 63.3197139,72.3296667 63.3197139,68.7083333 C63.3197139,61.6515833 50.0846028,60.7112222 48.5757139,60.6276944 C47.8374361,60.5576389 47.2042417,61.1477222 47.1557417,61.8886944 C47.1099361,62.6242778 47.6676861,63.2628611 48.4059639,63.31675 C48.5002694,63.3221389 57.930825,64.1223889 57.930825,68.7083333 C57.930825,73.2942778 48.5002694,74.0945278 48.4059639,74.0999167 C48.3682417,74.1026111 48.3386028,74.1241667 48.3062694,74.1295556 C48.1634639,74.1457222 48.0341306,74.1753611 47.9101861,74.2373333 C47.891325,74.2454167 47.8778528,74.2588889 47.8616861,74.2669722 C47.7350472,74.3370278 47.6218806,74.4178611 47.5248806,74.5283333 C47.4871583,74.56875 47.4602139,74.6118611 47.4278806,74.6576667 C47.3686028,74.7438889 47.309325,74.8274167 47.2689083,74.9325 C47.236575,75.0106389 47.2204083,75.0941667 47.2042417,75.1776944 C47.1907694,75.2423611 47.1584361,75.29625 47.1557417,75.3609167 C47.1530472,75.3878611 47.1665194,75.4148056 47.1665194,75.4444444 C47.1665194,75.4740833 47.1530472,75.5010278 47.1557417,75.5279722 C47.1584361,75.5953333 47.1907694,75.6492222 47.2042417,75.7138889 C47.2204083,75.7974167 47.2338806,75.8755556 47.2662139,75.9536944 C47.3012417,76.0372222 47.3497417,76.1072778 47.3982417,76.1800278 C47.4440472,76.2473889 47.4844639,76.31475 47.5410472,76.3740278 C47.600325,76.436 47.6757694,76.4845 47.7485194,76.5356944 C47.8158806,76.5815 47.8724639,76.6273056 47.9479083,76.6623333 C48.0341306,76.70275 48.1257417,76.7189167 48.2173528,76.7350833 C48.2820194,76.75125 48.3386028,76.7835833 48.4059639,76.7889722 C48.5002694,76.7943611 57.930825,77.5946111 57.930825,82.1805556 C57.930825,86.7665 48.5002694,87.56675 48.4059639,87.5721389 C47.6676861,87.6260278 47.1099361,88.2646111 47.1557417,89.0001944 C47.2015472,89.7142222 47.794325,90.2638889 48.497575,90.2638889 C48.5245194,90.2638889 48.5514639,90.2638889 48.5757139,90.2611944 C50.0846028,90.1776667 63.3197139,89.2373056 63.3197139,82.1805556 C63.3197139,78.5592222 59.8331028,76.5545556 56.2360194,75.4444444" id="Fill-11" fill="#664500"></path>
                <path d="M95.3949194,73.3473583 C97.3861139,69.2625806 95.6913083,64.3290528 91.609225,62.3378583 C89.1249472,61.1280528 86.3388917,61.2843306 84.0836417,62.499525 C83.6525306,59.9748306 82.0628083,57.6791639 79.5839194,56.4693583 C75.4937528,54.4754694 70.5629194,56.1756639 68.571725,60.2604417 C68.2861139,60.8370528 68.086725,61.4352194 67.9493083,62.0360806 C65.8638083,68.9203861 69.6737528,79.1215528 73.858225,83.451525 C79.847975,84.082025 90.2323639,80.8136639 94.3764194,74.9343861 C94.7671139,74.4520806 95.1120028,73.9266639 95.3949194,73.3473583" id="Fill-13" fill="#E75A70"></path>
            </g>
        </g>
    </g>
</svg>