<?xml version="1.0" encoding="UTF-8" standalone="no"?>
<svg width="100px" height="100px" viewBox="0 0 100 100" version="1.1" xmlns="http://www.w3.org/2000/svg" xmlns:xlink="http://www.w3.org/1999/xlink">
    <!-- Generator: Sketch 41.2 (35397) - http://www.bohemiancoding.com/sketch -->
    <title>heart-eyes-face</title>
    <desc>Created with Sketch.</desc>
    <defs></defs>
    <g id="Page-1" stroke="none" stroke-width="1" fill="none" fill-rule="evenodd">
        <g id="heart-eyes-face">
            <g id="Page-1" transform="translate(2.000000, 2.000000)">
                <path d="M97,48.5 C97,75.2854722 75.2854722,97 48.5,97 C21.7145278,97 0,75.2854722 0,48.5 C0,21.7145278 21.7145278,0 48.5,0 C75.2854722,0 97,21.7145278 97,48.5" id="Fill-1" fill="#FFCC4D"></path>
                <path d="M48.5,58.8698389 C40.5082778,58.8698389 35.2029167,57.9375611 28.6446389,56.6630889 C27.1438333,56.3747833 24.2311389,56.6630889 24.2311389,61.0738944 C24.2311389,69.9008944 34.3703333,80.93195 48.5,80.93195 C62.6296667,80.93195 72.7688611,69.9008944 72.7688611,61.0738944 C72.7688611,56.6630889 69.8534722,56.3720889 68.3553611,56.6630889 C61.7997778,57.9375611 56.4944167,58.8698389 48.5,58.8698389" id="Fill-3" fill="#664500"></path>
                <path d="M44.8622306,8.83993333 C42.5477028,2.28973889 35.3670083,-1.14837222 28.8141194,1.16076667 C24.8371194,2.56457222 22.021425,5.77096111 20.9247861,9.52701667 C17.7157028,7.29062778 13.5123694,6.56312778 9.54345278,7.96154444 C2.99325833,10.2733778 -0.447547222,17.4594611 1.86428611,24.0096556 C2.19300833,24.9392389 2.62950833,25.7960722 3.13606389,26.5909333 C8.392925,36.2424333 23.5815083,43.0270444 32.7803417,43.1105722 C39.8828972,37.2717111 47.4542861,22.46035 45.4900361,11.6475444 C45.3876472,10.7098778 45.1855639,9.76682222 44.8622306,8.83993333" id="Fill-5" fill="#E75A70"></path>
                <path d="M52.1364222,8.83993333 C54.45095,2.28973889 61.6343389,-1.14837222 68.1845333,1.16076667 C72.1642278,2.56457222 74.9772278,5.77096111 76.0765611,9.52701667 C79.2856444,7.29062778 83.4889778,6.56312778 87.4578944,7.96154444 C94.0053944,10.2733778 97.4462,17.4594611 95.1370611,24.0096556 C94.8056444,24.9392389 94.3718389,25.7960722 93.8625889,26.5909333 C88.6057278,36.2424333 73.4171444,43.0270444 64.2183111,43.1105722 C57.1157556,37.2717111 49.5470611,22.46035 51.5113111,11.6475444 C51.6137,10.7098778 51.8157833,9.76682222 52.1364222,8.83993333" id="Fill-7" fill="#E75A70"></path>
            </g>
        </g>
    </g>
</svg>