<?xml version="1.0" encoding="UTF-8" standalone="no"?>
<svg width="100px" height="100px" viewBox="0 0 100 100" version="1.1" xmlns="http://www.w3.org/2000/svg" xmlns:xlink="http://www.w3.org/1999/xlink">
    <!-- Generator: Sketch 41.2 (35397) - http://www.bohemiancoding.com/sketch -->
    <title>praise-hands</title>
    <desc>Created with Sketch.</desc>
    <defs>
        <polygon id="path-1" points="0 98 96.1135 98 96.1135 0 0 0"></polygon>
    </defs>
    <g id="Page-1" stroke="none" stroke-width="1" fill="none" fill-rule="evenodd">
        <g id="praise-hands">
            <g id="Page-1" transform="translate(2.000000, 1.000000)">
                <polygon id="Fill-1" fill="#FFDC5D" points="7.23838889 98 29.0161667 98 29.0161667 70.7777778 7.23838889 70.7777778"></polygon>
                <polygon id="Fill-2" fill="#FFDC5D" points="67.1272778 98 88.9023333 98 88.9023333 70.7777778 67.1272778 70.7777778"></polygon>
                <g id="Group-15">
                    <path d="M88.9042389,78.1814056 C88.9042389,78.1814056 80.7375722,83.62585 67.1264611,80.9036278 L67.1264611,67.2925167 L88.9042389,67.2925167 L88.9042389,78.1814056 Z" id="Fill-3" fill="#F9CA55"></path>
                    <path d="M7.23757222,78.1814056 C7.23757222,78.1814056 15.4042389,83.62585 29.01535,80.9036278 L29.01535,67.2925167 L7.23757222,67.2925167 L7.23757222,78.1814056 Z" id="Fill-5" fill="#F9CA55"></path>
                    <mask id="mask-2" fill="white">
                        <use xlink:href="#path-1"></use>
                    </mask>
                    <g id="Clip-8"></g>
                    <polygon id="Fill-7" fill="#EF9645" mask="url(#mask-2)" points="9.96061111 70.7777778 31.7383889 70.7777778 31.7383889 49 9.96061111 49"></polygon>
                    <polygon id="Fill-9" fill="#EF9645" mask="url(#mask-2)" points="64.4050556 70.7777778 86.1828333 70.7777778 86.1828333 49 64.4050556 49"></polygon>
                    <path d="M0.0852055556,32.2185889 C0.0852055556,32.2185889 0.0933722222,28.8838667 3.42537222,28.8920333 C6.76281667,28.9029222 6.75192778,32.2376444 6.75192778,32.2376444 L6.70292778,47.7107556 C7.23103889,47.4657556 7.78909444,47.2452556 8.36892778,47.0547 L8.43698333,25.5790889 C8.43698333,25.5790889 8.45059444,22.2443667 11.77715,22.2552556 C15.1118722,22.2634222 15.1037056,25.6008667 15.1037056,25.6008667 L15.0438167,45.7997556 C15.5855389,45.7534778 16.1435944,45.7126444 16.7043722,45.6881444 L16.7805944,22.2715889 C16.7805944,22.2715889 16.7887611,18.9368667 20.1234833,18.9477556 C23.4582056,18.9613667 23.4445944,22.2933667 23.4445944,22.2933667 L23.3683722,45.7072 C23.9400389,45.7371444 24.4872056,45.7970333 25.0398167,45.8460333 L25.1078722,23.9648111 C25.1078722,23.9648111 25.1214833,20.6300889 28.4480389,20.6437 C31.7827611,20.6518667 31.7664278,23.9838667 31.7664278,23.9838667 L31.7010944,47.1254778 L31.6929278,48.9793111 L31.6929278,50.6425889 C21.6914833,50.6180889 14.9975389,58.9235889 14.9675944,67.2590333 C14.9675944,68.9250333 16.6335944,68.9359222 16.6335944,68.9359222 C16.6608167,58.9235889 23.3493167,52.2895333 33.3534833,52.3167556 L38.2534833,40.9160889 C38.2534833,40.9160889 39.3287611,37.7637556 42.4892611,38.8417556 C45.6415944,39.9088667 44.5717611,43.0693667 44.5717611,43.0693667 L42.1408167,51.5191444 C41.17715,54.8810889 40.2788167,58.2620889 39.8024278,61.7138667 C38.4467611,71.4703111 30.0568722,78.9700333 19.9329278,78.9455333 C8.89431667,78.8992556 -0.0345722222,69.9213667 0.000816666667,58.8800333 C0.00353888889,58.3002 0.0389277778,57.7421444 0.0933722222,57.2194778 L0.00626111111,57.2085889 L0.0852055556,32.2185889 Z" id="Fill-10" fill="#FFDC5D" mask="url(#mask-2)"></path>
                    <path d="M96.0288389,32.2185889 C96.0288389,32.2185889 96.0206722,28.8838667 92.6886722,28.8920333 C89.3512278,28.9029222 89.3621167,32.2376444 89.3621167,32.2376444 L89.4111167,47.7107556 C88.8830056,47.4657556 88.32495,47.2452556 87.7451167,47.0547 L87.6770611,25.5790889 C87.6770611,25.5790889 87.6661722,22.2443667 84.3368944,22.2552556 C81.0021722,22.2634222 81.0103389,25.6008667 81.0103389,25.6008667 L81.0702278,45.7997556 C80.5312278,45.7534778 79.9731722,45.7126444 79.4096722,45.6881444 L79.33345,22.2715889 C79.33345,22.2715889 79.3225611,18.9368667 75.9905611,18.9477556 C72.6558389,18.9613667 72.66945,22.2933667 72.66945,22.2933667 L72.7456722,45.7072 C72.1740056,45.7371444 71.6241167,45.7970333 71.0742278,45.8460333 L71.0061722,23.9648111 C71.0061722,23.9648111 70.9925611,20.6300889 67.6632833,20.6437 C64.3312833,20.6518667 64.3448944,23.9838667 64.3448944,23.9838667 L64.41295,47.1254778 L64.4211167,48.9793111 L64.4211167,50.6425889 C74.4225611,50.6180889 81.1137833,58.9235889 81.14645,67.2590333 C81.14645,68.9250333 79.48045,68.9359222 79.48045,68.9359222 C79.4505056,58.9235889 72.7620056,52.2895333 62.7605611,52.3167556 L57.8605611,40.9160889 C57.8605611,40.9160889 56.7852833,37.7637556 53.6247833,38.8417556 C50.4751722,39.9088667 51.5422833,43.0693667 51.5422833,43.0693667 L53.9732278,51.5191444 C54.9341722,54.8810889 55.8352278,58.2620889 56.3116167,61.7138667 C57.6672833,71.4703111 66.0571722,78.9700333 76.1811167,78.9455333 C87.2197278,78.8992556 96.1513389,69.9213667 96.1132278,58.8800333 C96.1105056,58.3002 96.0778389,57.7421444 96.0206722,57.2194778 L96.1077833,57.2085889 L96.0288389,32.2185889 Z" id="Fill-11" fill="#FFDC5D" mask="url(#mask-2)"></path>
                    <path d="M63.1547389,17.5814722 C62.5749056,17.5814722 61.9869056,17.3963611 61.4941833,17.01525 C60.30185,16.0951389 60.0840722,14.3855833 61.0041833,13.1959722 L69.1109611,2.70180556 C70.0229056,1.51491667 71.7379056,1.28625 72.9302389,2.21180556 C74.11985,3.12919444 74.3376278,4.83875 73.4175167,6.02836111 L65.3107389,16.5225278 C64.7771833,17.2166944 63.9714056,17.5814722 63.1547389,17.5814722" id="Fill-12" fill="#FFAC33" mask="url(#mask-2)"></path>
                    <path d="M33.15585,17.5814722 C32.3419056,17.5814722 31.5361278,17.2166944 30.99985,16.5225278 L22.89035,6.02836111 C21.9729611,4.83875 22.1934611,3.12919444 23.3830722,2.21180556 C24.5726833,1.29441667 26.2795167,1.50947222 27.1996278,2.70180556 L35.3091278,13.1959722 C36.2265167,14.3855833 36.0087389,16.0951389 34.8191278,17.01525 C34.3236833,17.3963611 33.7384056,17.5814722 33.15585,17.5814722" id="Fill-13" fill="#FFAC33" mask="url(#mask-2)"></path>
                    <path d="M48.0709056,16.3333333 C46.5682389,16.3333333 45.3486833,15.1137778 45.3486833,13.6111111 L45.3486833,2.72222222 C45.3486833,1.21955556 46.5682389,0 48.0709056,0 C49.5762944,0 50.7931278,1.21955556 50.7931278,2.72222222 L50.7931278,13.6111111 C50.7931278,15.1137778 49.5762944,16.3333333 48.0709056,16.3333333" id="Fill-14" fill="#FFAC33" mask="url(#mask-2)"></path>
                </g>
            </g>
        </g>
    </g>
</svg>